<svg height="512pt" viewBox="-26 0 512 512.00102" width="512pt" xmlns="http://www.w3.org/2000/svg"><path d="m243.207031 79.914062c-90.199219 0-160.074219 80.558594-146.242187 170.613282-27.550782 81.222656-27.367188 78.507812-27.367188 86.914062 0 20.128906 15.5 36.601563 35.285156 37.503906.285157.011719 9.578126.023438 9.863282.023438v11.796875c0 4.234375 3.429687 7.664063 7.664062 7.664063s7.664063-3.429688 7.664063-7.664063v-19.449219c0-4.226562-3.421875-7.65625-7.648438-7.664062l-17-.03125c-11.507812-.605469-20.5-10.320313-20.5-22.179688 0-5.136718-.972656-.828125 27.164063-83.789062.40625-1.195313.511718-2.476563.300781-3.726563-13.554687-81.09375 49.082031-155 131.585937-154.679687 106.644532.605468 166.871094 118.074218 110.089844 207.128906-10.398437 16.308594-15.894531 35.386719-15.894531 55.179688v138.015624c0 .609376-.492187 1.101563-1.097656 1.101563h-130.003907c-.605468 0-1.097656-.492187-1.097656-1.101563v-48.535156c0-4.742187-4.265625-8.339844-8.929687-7.558594l-46.816407 7.84375c-11.164062-.316406-20.152343-9.496093-20.152343-20.734374v-9.160157c0-4.234375-3.429688-7.664062-7.664063-7.664062s-7.664062 3.429687-7.664062 7.664062v9.160157c0 19.890624 16.179687 36.070312 36.070312 36.070312 1.019532 0-1.4375.347656 39.828125-6.5625v39.476562c0 9.058594 7.367188 16.429688 16.425781 16.429688h130c9.0625 0 16.429688-7.371094 16.429688-16.429688v-138.015624c0-16.867188 4.664062-33.097657 13.492188-46.9375 63.984374-100.359376-5.304688-230.292969-123.785157-230.703126zm0 0"/><path d="m194.761719 140.152344c-3.460938-2.421875-8.246094-1.574219-10.667969 1.902344-26.765625 38.324218-9.125 92.082031 35.585938 106.949218v105.476563c0 15.566406 12.660156 28.21875 28.214843 28.21875h33.878907c12.203124 0 22.125-9.921875 22.125-22.117188 0-12.199219-9.921876-22.125-22.125-22.125h-17.84375v-15.859375h17.84375c12.203124 0 22.125-9.925781 22.125-22.125 0-12.195312-9.921876-22.128906-22.125-22.128906h-17.84375v-29.339844c27.972656-9.300781 48.195312-35.707031 48.195312-66.753906 0-53.144531-56.488281-86.15625-102.390625-62.609375-3.769531 1.933594-5.253906 6.5625-3.320313 10.324219 1.929688 3.769531 6.550782 5.253906 10.320313 3.320312 35.671875-18.324218 80.0625 7.152344 80.0625 48.964844 0 22.453125-13.53125 41.808594-32.867187 50.332031-36.101563 16.007813-77.117188-10.675781-77.117188-50.332031 0-11.324219 3.402344-22.1875 9.851562-31.425781 2.421876-3.476563 1.574219-8.25-1.902343-10.671875zm40.246093 112.082031c4.390626.441406 9.027344.457031 13.59375 0v33.777344c0 4.238281 3.421876 7.664062 7.664063 7.664062h25.507813c3.75 0 6.796874 3.054688 6.796874 6.796875 0 3.75-3.046874 6.792969-6.796874 6.792969h-25.507813c-4.242187 0-7.664063 3.433594-7.664063 7.667969v31.1875c0 4.230468 3.421876 7.667968 7.664063 7.667968h25.507813c3.75 0 6.796874 3.042969 6.796874 6.792969 0 3.742188-3.046874 6.789063-6.796874 6.789063h-33.878907c-7.101562 0-12.886719-5.777344-12.886719-12.890625zm0 0"/><path d="m248.601562 185.292969c10.78125-2.972657 18.722657-12.867188 18.722657-24.597657 0-14.074218-11.445313-25.519531-25.519531-25.519531-14.082032 0-25.527344 11.445313-25.527344 25.519531 0 16.929688 16.28125 29.136719 32.324218 24.597657zm-16.996093-24.597657c0-5.621093 4.578125-10.1875 10.199219-10.1875 5.621093 0 10.1875 4.566407 10.1875 10.1875 0 5.632813-4.566407 10.199219-10.1875 10.199219-5.621094 0-10.199219-4.566406-10.199219-10.199219zm0 0"/><path d="m230.390625 60.296875c4.234375 0 7.664063-3.429687 7.664063-7.664063v-44.96875c0-4.234374-3.429688-7.664062-7.664063-7.664062s-7.667969 3.429688-7.667969 7.664062v44.96875c0 4.234376 3.433594 7.664063 7.667969 7.664063zm0 0"/><path d="m115.90625 91.386719c1.417969 2.457031 3.996094 3.832031 6.644531 3.832031 5.84375 0 9.59375-6.367188 6.628907-11.496094l-22.480469-38.945312c-2.117188-3.664063-6.808594-4.917969-10.472657-2.804688-3.664062 2.117188-4.921874 6.804688-2.804687 10.472656zm0 0"/><path d="m50.441406 165.082031-38.941406-22.484375c-3.667969-2.117187-8.355469-.863281-10.472656 2.804688-2.113282 3.664062-.859375 8.355468 2.804687 10.46875 42.160157 24.339844 39.953125 23.511718 42.769531 23.511718 7.808594 0 10.617188-10.390624 3.839844-14.300781zm0 0"/><path d="m338.226562 95.21875c2.648438 0 5.226563-1.375 6.644532-3.832031l22.484375-38.941407c2.117187-3.667968.859375-8.355468-2.804688-10.472656-3.667969-2.113281-8.355469-.859375-10.472656 2.804688l-22.480469 38.945312c-2.964844 5.128906.785156 11.496094 6.628906 11.496094zm0 0"/><path d="m459.75 145.402344c-2.117188-3.667969-6.804688-4.917969-10.46875-2.804688l-38.945312 22.484375c-3.664063 2.113281-4.921876 6.804688-2.804688 10.46875 2.117188 3.667969 6.808594 4.921875 10.472656 2.804688l38.941406-22.484375c3.664063-2.113282 4.921876-6.804688 2.804688-10.46875zm0 0"/></svg>